<svg width="41" height="41" viewBox="0 0 41 41" fill="none" xmlns="http://www.w3.org/2000/svg">
<g id="fluent:money-hand-20-filled">
<g id="Group">
<path id="Vector" d="M6.1499 7.1751C6.1499 6.35956 6.47387 5.57742 7.05055 5.00074C7.62722 4.42407 8.40936 4.1001 9.2249 4.1001H23.5749C24.3904 4.1001 25.1726 4.42407 25.7493 5.00074C26.3259 5.57742 26.6499 6.35956 26.6499 7.1751V10.8507L33.3493 17.5501C34.3099 18.511 34.8496 19.8139 34.8499 21.1725V35.8751C34.8499 36.1469 34.7419 36.4077 34.5497 36.5999C34.3575 36.7921 34.0968 36.9001 33.8249 36.9001C33.5531 36.9001 33.2923 36.7921 33.1001 36.5999C32.9079 36.4077 32.7999 36.1469 32.7999 35.8751V21.1725C32.7992 20.3572 32.4747 19.5756 31.8979 18.9995L26.6499 13.7515V20.0757L28.4006 21.8244C28.5928 22.0169 28.7007 22.2778 28.7005 22.5498C28.7003 22.8218 28.592 23.0826 28.3996 23.2748C28.3043 23.3699 28.1912 23.4454 28.0667 23.4969C27.9422 23.5483 27.8089 23.5747 27.6742 23.5746C27.4022 23.5744 27.1414 23.4662 26.9492 23.2737L20.7992 17.1237C19.9341 16.2586 19.4524 16.2955 19.2412 16.3488C18.8866 16.4349 18.5729 16.7178 18.1342 17.1401C17.9292 17.3369 17.8431 17.5296 17.8841 17.8166C17.9374 18.1754 18.2183 18.817 19.1756 19.7744L21.6623 22.261L22.2486 22.8494C22.344 22.9446 22.4198 23.0577 22.4715 23.1822C22.5232 23.3068 22.5499 23.4403 22.5499 23.5751C22.5499 25.1618 22.5622 26.7587 23.0009 27.9641C23.21 28.5402 23.495 28.9604 23.8701 29.2413C24.2371 29.516 24.7783 29.7251 25.6249 29.7251C25.8968 29.7251 26.1575 29.8331 26.3497 30.0253C26.5419 30.2175 26.6499 30.4783 26.6499 30.7501V33.8251C26.6499 34.6406 26.3259 35.4228 25.7493 35.9994C25.1726 36.5761 24.3904 36.9001 23.5749 36.9001H9.2249C8.40936 36.9001 7.62722 36.5761 7.05055 35.9994C6.47387 35.4228 6.1499 34.6406 6.1499 33.8251V7.1751ZM16.3999 15.3751C15.539 15.375 14.692 15.5917 13.937 16.0053C13.182 16.4189 12.5434 17.0159 12.08 17.7415C11.6166 18.467 11.3435 19.2975 11.2857 20.1564C11.228 21.0153 11.3876 21.8749 11.7497 22.6559C12.1118 23.4369 12.6648 24.1141 13.3577 24.625C14.0505 25.1359 14.8609 25.464 15.7141 25.5791C16.5672 25.6942 17.4356 25.5925 18.239 25.2835C19.0425 24.9744 19.7552 24.468 20.3113 23.8108L20.2088 23.7083L17.7242 21.2237C16.6316 20.1311 16.0022 19.104 15.8567 18.1159C15.786 17.667 15.8276 17.2076 15.9779 16.7786C16.1281 16.3497 16.3823 15.9647 16.7177 15.658L16.7874 15.5903L16.9801 15.4058C16.7874 15.3848 16.5937 15.3745 16.3999 15.3751ZM20.4999 33.8251V34.8501H22.5499V33.8251C22.5499 33.5532 22.6579 33.2925 22.8501 33.1003C23.0423 32.9081 23.3031 32.8001 23.5749 32.8001H24.5999V31.6931C23.8958 31.5861 23.2278 31.3112 22.6524 30.8915C22.0282 31.0879 21.4828 31.4782 21.0957 32.0058C20.7086 32.5334 20.4999 33.1707 20.4999 33.8251ZM8.1999 10.2501H9.2249C10.0404 10.2501 10.8226 9.92613 11.3993 9.34945C11.9759 8.77278 12.2999 7.99064 12.2999 7.1751V6.1501H10.2499V7.1751C10.2499 7.44694 10.1419 7.70766 9.94969 7.89988C9.75746 8.09211 9.49675 8.2001 9.2249 8.2001H8.1999V10.2501ZM20.4999 7.1751C20.4999 7.99064 20.8239 8.77278 21.4005 9.34945C21.9772 9.92613 22.7594 10.2501 23.5749 10.2501H24.5999V8.2001H23.5749C23.3031 8.2001 23.0423 8.09211 22.8501 7.89988C22.6579 7.70766 22.5499 7.44694 22.5499 7.1751V6.1501H20.4999V7.1751ZM12.2999 33.8251C12.2999 33.0096 11.9759 32.2274 11.3993 31.6507C10.8226 31.0741 10.0404 30.7501 9.2249 30.7501H8.1999V32.8001H9.2249C9.49675 32.8001 9.75746 32.9081 9.94969 33.1003C10.1419 33.2925 10.2499 33.5532 10.2499 33.8251V34.8501H12.2999V33.8251Z" fill="white"/>
</g>
</g>
</svg>
