<svg width="41" height="41" viewBox="0 0 41 41" fill="none" xmlns="http://www.w3.org/2000/svg">
<g id="financial 1">
<g id="Group">
<path id="Vector" d="M26.5039 9.68926H35.4095L26.5039 0.703613V9.68926Z" fill="white"/>
<path id="Vector_2" d="M36.1133 12.0918H24.1016V0H4.88281V41H36.1133V12.0918ZM19.2969 19.2988H21.6992V21.7012H19.2969V19.2988ZM13.291 14.4941C13.283 14.4904 9.6875 14.3423 9.6875 10.8906C9.6875 9.32742 10.6951 8.00749 12.0898 7.50973V4.88477H14.4922V7.50973C15.8869 8.00741 16.8945 9.3275 16.8945 10.8906H14.4922C14.4922 10.2279 13.9537 9.68945 13.291 9.68945C12.6283 9.68945 12.0898 10.2279 12.0898 10.8906C12.0898 11.5534 12.6283 12.0918 13.291 12.0918C13.299 12.0956 16.8945 12.2436 16.8945 15.6953C16.8945 17.2585 15.8869 18.5786 14.4922 19.0762V21.7012H12.0898V19.0762C10.6951 18.5784 9.6875 17.2584 9.6875 15.6953H12.0898C12.0898 16.358 12.6283 16.8965 13.291 16.8965C13.9537 16.8965 14.4922 16.358 14.4922 15.6953C14.4922 15.0326 13.9537 14.4941 13.291 14.4941ZM31.3086 36.1152H9.6875V33.7129H31.3086V36.1152ZM31.3086 31.3105H9.6875V28.9082H31.3086V31.3105ZM31.3086 26.5059H9.6875V24.1035H31.3086V26.5059ZM31.3086 21.7012H24.1016V19.2988H31.3086V21.7012Z" fill="white"/>
</g>
</g>
</svg>
