<svg width="44" height="44" viewBox="0 0 44 44" fill="none" xmlns="http://www.w3.org/2000/svg">
<g id="log-in (1) 2" clip-path="url(#clip0_1_2037)">
<path id="Vector" d="M14.2656 1.28906V11.9379C15.5225 11.4911 16.7071 11.6717 17.7011 12.3371L22.9732 16.2875C23.9349 16.9233 24.5781 18.1268 24.5781 19.4219C24.5781 20.7173 23.9349 21.9208 22.856 22.6395L17.8169 26.4238C16.6101 27.2375 15.4513 27.3268 14.2656 26.9055C14.2656 27.3094 14.2656 35.2478 14.2656 34.9766C14.2656 35.6893 14.842 36.2657 15.5547 36.2657H27.1563V9.02345C27.1563 7.73069 27.8159 6.50977 28.8898 5.79844L36.6208 0H15.5547C14.842 0 14.2656 0.576722 14.2656 1.28906Z" fill="white"/>
<path id="Vector_2" d="M43.8906 1.28904C43.8906 0.824775 43.6412 0.396765 43.237 0.167487C42.8329 -0.0614566 42.337 -0.0554141 41.9379 0.183935L31.6254 7.91832C31.2377 8.15095 31 8.57023 31 9.02342V42.711C31 43.1756 31.2491 43.6036 31.6533 43.8325C32.0564 44.0611 32.5526 44.0557 32.9524 43.8164L43.2649 36.082C43.6526 35.849 43.8906 35.4298 43.8906 34.9766V1.28904ZM34.8695 25.8672C34.1575 25.8672 33.5805 25.2901 33.5805 24.5781C33.5805 23.8661 34.1575 23.2891 34.8695 23.2891C35.5815 23.2891 36.1586 23.8661 36.1586 24.5781C36.1586 25.2901 35.5815 25.8672 34.8695 25.8672Z" fill="white"/>
<path id="Vector_3" d="M2.66406 21.9994H14.2656V23.2885C14.2656 23.7645 14.5275 24.2012 14.9468 24.4255C15.36 24.647 15.8699 24.6276 16.2697 24.361L21.426 20.4938C21.7848 20.2548 22 19.852 22 19.4216C22 18.9909 21.7848 18.5881 21.426 18.3491L16.2697 14.4809C15.8756 14.218 15.3647 14.1938 14.9468 14.4167C14.5275 14.641 14.2656 15.0777 14.2656 15.5537V16.8435H2.66406C1.95139 16.8435 1.375 17.4199 1.375 18.1325V20.7107C1.375 21.423 1.95139 21.9994 2.66406 21.9994Z" fill="white"/>
</g>
<defs>
<clipPath id="clip0_1_2037">
<rect width="44" height="44" fill="white"/>
</clipPath>
</defs>
</svg>
