<svg width="49" height="49" viewBox="0 0 49 49" fill="none" xmlns="http://www.w3.org/2000/svg">
<g id="press-button 1">
<g id="Group">
<path id="Vector" d="M12.143 16.2506C11.8069 15.1125 11.4842 13.9724 11.2417 12.8802C9.64721 11.9368 8.56256 10.2201 8.56256 8.23605C8.56256 5.25136 10.9896 2.82619 13.9724 2.82619C16.9552 2.82619 19.3823 5.25327 19.3823 8.23605C19.3823 8.64661 19.3269 9.04189 19.241 9.42572C19.7585 10.5657 20.1767 11.849 20.5433 13.1532C21.5745 11.7783 22.2085 10.0883 22.2085 8.23605C22.2085 3.6855 18.523 0 13.9724 0C9.42188 0 5.73828 3.6855 5.73828 8.23605C5.73828 12.1545 8.47854 15.418 12.143 16.2506Z" fill="white"/>
<path id="Vector_2" d="M6.45372 35.7489C8.48361 33.5548 10.7617 34.4141 13.8114 34.8781C16.4313 35.2811 19.0112 34.5459 18.8393 33.1309C18.5681 30.8413 18.1862 29.8177 17.3174 26.8521C16.6242 24.4938 15.3085 20.2431 14.1112 16.1795C12.5071 10.7429 12.0431 8.21839 14.178 7.58823C16.479 6.91796 17.7986 10.1872 18.994 14.7205C20.3555 19.8802 21.0716 22.1584 21.4726 22.0381C22.1792 21.8357 21.2129 19.6282 23.0614 19.0839C25.372 18.4118 25.8188 20.2182 26.4662 20.0368C27.1135 19.842 26.8939 18.0127 28.7367 17.4742C30.589 16.9395 31.519 19.2195 32.2828 18.9923C33.039 18.7689 33.0218 17.9458 34.1637 17.6193C35.3076 17.2794 39.6118 19.2062 42.0752 27.6217C45.1668 38.2027 41.6837 40.1696 42.7397 43.752L28.9391 48.9995C27.822 46.3127 24.3618 46.1141 21.3008 44.4012C18.2168 42.6654 16.122 39.2836 8.0845 39.4478C5.06163 39.5089 5.20485 37.099 6.45372 35.7489Z" fill="white"/>
</g>
</g>
</svg>
